<svg xmlns="http://www.w3.org/2000/svg" xmlns:xlink="http://www.w3.org/1999/xlink" width="840" height="482" viewBox="0 0 840 482" role="img" aria-label="Как всё связано: ИИ-агенты, CRM, ERP, MES, WMS"><title>Как всё связано: ИИ-агенты, CRM, ERP, MES, WMS</title><defs><marker id="arrow" viewBox="0 0 10 10" refX="9" refY="5" markerWidth="7" markerHeight="7" orient="auto-start-reverse"><path d="M0 0L10 5L0 10z" fill="#5B7196"/></marker></defs><defs><path id="mb578" d="M61 0L61-698L212-698L212-414L300-414L412-698L561-698L463-449Q446-407 428-388Q410-369 383-363L383-363L383-357Q410-351 427-335Q444-318 460-278L460-278L520-123L576-123L576 0L502 0Q455 0 426-21Q396-42 376-95L376-95L300-293L212-293L212 0L61 0Z"/><path id="mb568" d="M595 0L435 0L391-168L200-168L157 0L5 0L194-698L406-698L595 0ZM368-289L300-553L292-553L224-289L368-289Z"/><path id="mb570" d="M77 0L77-698L322-698Q425-698 480-648Q534-598 534-512L534-512Q534-452 505-417Q475-381 420-365L420-365L420-359Q485-343 521-303Q556-263 556-192L556-192Q556-104 501-52Q445 0 345 0L345 0L77 0ZM223-105L299-105Q353-105 378-123Q403-141 403-189L403-189L403-218Q403-266 378-284Q353-302 299-302L299-302L223-302L223-105ZM223-402L280-402Q333-402 357-420Q381-437 381-483L381-483L381-513Q381-559 357-576Q333-593 280-593L280-593L223-593L223-402Z"/><path id="mb585" d="M316 12L316 12Q176 12 109-83Q41-177 41-349L41-349Q41-521 109-616Q176-710 316-710L316-710Q370-710 412-696Q453-681 483-655Q513-629 533-592Q552-555 563-509L563-509L423-475Q417-500 409-521Q401-542 389-557Q376-572 358-581Q339-589 313-589L313-589Q252-589 227-542Q201-494 201-410L201-410L201-288Q201-204 227-157Q252-109 313-109L313-109Q365-109 389-141Q412-173 423-223L423-223L563-189Q552-143 533-106Q513-69 483-43Q453-16 412-2Q370 12 316 12Z"/><path id="mb662" d="M526 0L80 0L80-698L526-698L526-575L230-575L230-415L516-415L516-292L230-292L230-123L526-123L526 0ZM193-761L193-761Q148-761 131-780Q113-798 113-824L113-824L113-850Q113-876 131-894Q148-912 193-912L193-912Q238-912 256-894Q274-876 274-850L274-850L274-824Q274-798 256-780Q238-761 193-761ZM413-761L413-761Q368-761 350-780Q332-798 332-824L332-824L332-850Q332-876 350-894Q368-912 413-912L413-912Q458-912 476-894Q493-876 493-850L493-850L493-824Q493-798 476-780Q458-761 413-761Z"/><path id="mb599" d="M32 0L32-123L92-123L144-223Q159-252 176-265Q192-278 216-281L216-281L216-287Q133-292 91-343Q49-393 49-482L49-482Q49-531 64-571Q79-610 107-639Q134-667 173-683Q212-698 261-698L261-698L533-698L533 0L382 0L382-267L331-267L236-84Q223-60 211-44Q198-27 183-18Q168-8 151-4Q134 0 112 0L112 0L32 0ZM382-383L382-580L289-580Q206-580 206-506L206-506L206-457Q206-383 289-383L289-383L382-383Z"/><path id="mb575" d="M278 12L278 12Q194 12 136-16Q77-44 38-88L38-88L125-184Q155-149 196-130Q236-110 278-110L278-110Q331-110 357-134Q383-157 383-196L383-196L383-207Q383-249 362-268Q340-287 292-287L292-287L196-287L196-408L292-408Q333-408 352-431Q371-454 371-495L371-495L371-504Q371-589 276-589L276-589Q231-589 198-571Q165-552 136-520L136-520L51-608Q96-656 152-683Q208-710 287-710L287-710Q404-710 468-660Q531-610 531-513L531-513Q531-451 492-412Q452-372 386-361L386-361L386-355Q420-353 449-343Q477-332 498-314Q519-295 531-268Q543-241 543-205L543-205Q543-155 524-115Q505-75 471-47Q436-19 387-4Q338 12 278 12Z"/><path id="mb581" d="M388 0L388-292L212-292L212 0L61 0L61-698L212-698L212-415L388-415L388-698L539-698L539 0L388 0Z"/><path id="mb582" d="M300 12L300 12Q160 12 94-83Q27-178 27-349L27-349Q27-520 94-615Q160-710 300-710L300-710Q440-710 507-615Q573-520 573-349L573-349Q573-178 507-83Q440 12 300 12ZM300-109L300-109Q364-109 389-157Q413-204 413-289L413-289L413-410Q413-494 389-542Q364-589 300-589L300-589Q236-589 212-542Q187-494 187-410L187-410L187-288Q187-204 212-157Q236-109 300-109Z"/><path id="mb588" d="M226 34L226-49Q128-61 76-134Q24-206 24-348L24-348Q24-488 77-562Q129-635 226-647L226-647L226-730L374-730L374-647Q472-635 524-563Q576-490 576-348L576-348Q576-208 524-135Q471-61 374-49L374-49L374 34L226 34ZM236-154L236-542Q156-533 156-415L156-415L156-281Q156-163 236-154L236-154ZM364-542L364-154Q444-163 444-281L444-281L444-415Q444-533 364-542L364-542Z"/><path id="mb584" d="M227 0L76 0L76-698L346-698Q397-698 437-683Q477-667 505-638Q532-609 546-568Q560-527 560-476L560-476Q560-425 546-384Q532-343 505-314Q477-285 437-270Q397-254 346-254L346-254L227-254L227 0ZM227-577L227-375L308-375Q361-375 382-395Q402-415 402-461L402-461L402-491Q402-537 382-557Q361-577 308-577L308-577L227-577Z"/><path id="mb586" d="M576-575L375-575L375 0L225 0L225-575L24-575L24-698L576-698L576-575Z"/><path id="mb70" d="M460-234L140-234L140-376L460-376L460-234Z"/><path id="mb576" d="M55 0L55-698L196-698L196-439L184-252L194-252L404-698L545-698L545 0L404 0L404-259L416-446L406-446L196 0L55 0Z"/><path id="mb569" d="M64 0L64-698L497-698L497-575L215-575L215-426L353-426Q402-426 441-411Q480-395 508-368Q535-340 550-301Q565-262 565-215L565-215Q565-168 550-129Q535-90 508-61Q480-32 441-16Q402 0 353 0L353 0L64 0ZM215-118L325-118Q408-118 408-192L408-192L408-234Q408-308 325-308L325-308L215-308L215-118Z"/><path id="mb597" d="M287 12L287 12Q231 12 189-2Q146-16 115-42Q84-67 65-102Q45-137 35-179L35-179L175-213Q179-192 187-173Q195-154 209-140Q222-126 242-118Q261-109 290-109L290-109Q354-109 380-157Q406-204 406-288L406-288L406-292L223-292L223-415L406-415Q405-496 379-543Q353-589 290-589L290-589Q261-589 242-581Q222-572 209-558Q196-544 188-525Q180-506 175-485L175-485L35-519Q45-561 65-596Q84-631 115-657Q146-682 189-696Q231-710 287-710L287-710Q430-710 498-616Q566-521 566-349L566-349Q566-177 498-83Q430 12 287 12Z"/><path id="mb535" d="M572 0L487 0Q441 0 413-24Q385-47 380-91L380-91L375-91Q361-40 320-14Q278 12 218 12L218 12Q143 12 98-29Q52-69 52-142L52-142Q52-223 111-262Q170-301 284-301L284-301L367-301L367-327Q367-373 346-397Q324-420 273-420L273-420Q226-420 197-402Q168-384 147-355L147-355L66-427Q92-471 148-500Q203-528 290-528L290-528Q396-528 456-480Q515-431 515-333L515-333L515-107L572-107L572 0ZM274-85L274-85Q313-85 340-104Q367-123 367-159L367-159L367-221L288-221Q197-221 197-160L197-160L197-140Q197-113 218-99Q239-85 274-85Z"/><path id="mb539" d="M122 0L122-516L512-516L512-401L270-401L270 0L122 0Z"/><path id="mb541" d="M314 12L314 12Q184 12 117-60Q50-132 50-256L50-256Q50-319 68-370Q85-420 118-456Q150-491 197-510Q243-528 301-528L301-528Q359-528 405-510Q451-491 483-457Q515-423 533-375Q550-326 550-266L550-266L550-222L197-222L197-213Q197-163 228-133Q259-102 319-102L319-102Q365-102 398-120Q431-137 455-166L455-166L535-79Q505-42 451-15Q397 12 314 12ZM302-422L302-422Q254-422 226-393Q197-363 197-313L197-313L197-305L405-305L405-313Q405-364 378-393Q350-422 302-422Z"/><path id="mb549" d="M68 0L68-516L216-516L216-319L384-319L384-516L532-516L532 0L384 0L384-204L216-204L216 0L68 0Z"/><path id="mb554" d="M227 0L227-401L57-401L57-516L543-516L543-401L373-401L373 0L227 0Z"/><path id="mb563" d="M30 0L30-516L154-516L154-369L212-369Q250-369 283-357Q316-345 341-322Q365-298 379-264Q393-230 393-185L393-185Q393-140 379-106Q365-71 340-48Q315-24 282-12Q248 0 208 0L208 0L30 0ZM154-101L207-101Q236-101 252-118Q268-135 268-172L268-172L268-197Q268-234 252-251Q236-268 207-268L207-268L154-268L154-101ZM445 0L445-516L569-516L569 0L445 0Z"/><path id="mr551" d="M97 0L97-516L503-516L503 0L423 0L423-448L177-448L177 0L97 0Z"/><path id="mr550" d="M300 12L300 12Q246 12 203-7Q159-26 129-62Q98-97 82-147Q66-196 66-258L66-258Q66-319 82-369Q98-419 129-455Q159-490 203-509Q246-528 300-528L300-528Q354-528 398-509Q441-490 472-455Q502-419 518-369Q534-319 534-258L534-258Q534-196 518-147Q502-97 472-62Q441-26 398-7Q354 12 300 12ZM300-57L300-57Q367-57 408-97Q449-137 449-221L449-221L449-295Q449-379 408-419Q367-459 300-459L300-459Q233-459 192-419Q151-379 151-295L151-295L151-221Q151-137 192-97Q233-57 300-57Z"/><path id="mr544" d="M95 0L95-516L175-516L175-253L167-121L171-121L430-516L505-516L505 0L425 0L425-263L433-395L429-395L170 0L95 0Z"/><path id="mr553" d="M318 12L318 12Q262 12 219-8Q175-27 145-62Q115-97 100-147Q84-197 84-258L84-258Q84-319 100-369Q116-419 146-455Q176-490 219-509Q262-528 317-528L317-528Q392-528 439-495Q486-462 508-409L508-409L444-375Q430-415 398-437Q365-459 317-459L317-459Q282-459 255-448Q227-436 208-415Q189-394 180-365Q170-336 170-302L170-302L170-214Q170-180 180-151Q189-122 208-101Q227-80 255-69Q283-57 319-57L319-57Q371-57 405-81Q439-105 459-147L459-147L516-108Q493-56 445-22Q396 12 318 12Z"/><path id="mr546" d="M107 0L107-516L187-516L187-300L297-300L436-516L519-516L393-320Q376-294 363-284Q350-273 332-268L332-268L332-264Q352-261 366-251Q380-240 395-214L395-214L479-68L537-68L537 0L479 0Q453 0 434-14Q415-28 396-60L396-60L297-232L187-232L187 0L107 0Z"/><path id="mr547" d="M26 0L26-68L90-68Q105-87 117-113Q128-139 136-175Q143-211 147-259Q151-306 151-369L151-369L151-516L494-516L494 0L414 0L414-448L229-448L229-367Q229-227 209-148Q188-68 154-34L154-34Q135-15 112-8Q89 0 57 0L57 0L26 0Z"/><path id="mr540" d="M22 140L22-68L80-68Q112-119 131-189Q149-258 149-352L149-352L149-516L482-516L482-68L567-68L567 140L494 140L494 0L95 0L95 140L22 140ZM167-68L402-68L402-448L227-448L227-348Q227-255 212-189Q197-122 167-68L167-68Z"/><path id="mr538" d="M107 0L107-516L370-516Q433-516 469-481Q505-445 505-385L505-385Q505-288 404-276L404-276L404-272Q464-267 494-235Q523-202 523-154L523-154Q523-123 513-95Q503-67 484-46Q465-25 437-13Q409 0 373 0L373 0L107 0ZM187-64L353-64Q394-64 416-84Q438-104 438-139L438-139L438-162Q438-197 417-217Q395-236 359-236L359-236L187-236L187-64ZM187-299L349-299Q382-299 401-316Q420-333 420-364L420-364L420-386Q420-417 401-435Q382-452 349-452L349-452L187-452L187-299Z"/><path id="mb32" d="M316 12L316 12Q176 12 109-83Q41-177 41-349L41-349Q41-521 109-616Q176-710 316-710L316-710Q370-710 412-696Q453-681 483-655Q513-629 533-592Q552-555 563-509L563-509L423-475Q417-500 409-521Q401-542 389-557Q376-572 358-581Q339-589 313-589L313-589Q252-589 227-542Q201-494 201-410L201-410L201-288Q201-204 227-157Q252-109 313-109L313-109Q365-109 389-141Q412-173 423-223L423-223L563-189Q552-143 533-106Q513-69 483-43Q453-16 412-2Q370 12 316 12Z"/><path id="mb47" d="M224-259L224 0L76 0L76-698L346-698Q397-698 437-683Q477-667 505-638Q532-609 546-568Q560-527 560-476L560-476Q560-402 528-349Q496-296 437-279L437-279L574 0L410 0L293-259L224-259ZM224-375L310-375Q363-375 384-395Q404-415 404-461L404-461L404-491Q404-537 384-557Q363-577 310-577L310-577L224-577L224-375Z"/><path id="mb42" d="M431 0L431-311L439-506L430-506L300-147L170-506L161-506L169-311L169 0L39 0L39-698L216-698L302-463L310-463L396-698L561-698L561 0L431 0Z"/><path id="mr541" d="M309 12L309 12Q253 12 209-7Q164-26 133-62Q101-97 84-147Q67-196 67-257L67-257Q67-319 85-369Q102-419 133-455Q164-490 208-509Q251-528 304-528L304-528Q356-528 399-509Q441-490 471-457Q501-423 517-377Q533-331 533-276L533-276L533-238L151-238L151-214Q151-180 162-151Q173-122 194-101Q214-80 244-69Q273-57 309-57L309-57Q361-57 399-81Q437-105 457-147L457-147L516-107Q493-55 440-22Q386 12 309 12ZM304-462L304-462Q271-462 243-450Q215-438 195-417Q174-396 163-368Q151-339 151-305L151-305L151-298L447-298L447-309Q447-343 437-371Q426-399 408-420Q389-440 363-451Q336-462 304-462Z"/><path id="mr549" d="M95 0L95-516L175-516L175-300L425-300L425-516L505-516L505 0L425 0L425-232L175-232L175 0L95 0Z"/><path id="mr554" d="M260 0L260-448L70-448L70-516L530-516L530-448L340-448L340 0L260 0Z"/><path id="mr563" d="M54 0L54-516L134-516L134-329L221-329Q299-329 345-285Q391-241 391-164L391-164Q391-86 346-43Q301 0 222 0L222 0L54 0ZM134-68L210-68Q255-68 281-86Q306-104 306-144L306-144L306-186Q306-226 281-244Q255-261 210-261L210-261L134-261L134-68ZM466 0L466-516L546-516L546 0L466 0Z"/><path id="mr138" d="M300-235L300-235Q259-235 243-252Q226-269 226-295L226-295L226-313Q226-339 243-356Q259-373 300-373L300-373Q341-373 358-356Q374-339 374-313L374-313L374-295Q374-269 358-252Q341-235 300-235Z"/><path id="mr552" d="M95 200L95-516L175-516L175-432L179-432Q229-528 338-528L338-528Q433-528 487-457Q540-386 540-258L540-258Q540-130 487-59Q433 12 338 12L338 12Q229 12 179-84L179-84L175-84L175 200L95 200ZM307-59L307-59Q377-59 416-102Q454-144 454-214L454-214L454-302Q454-372 416-415Q377-457 307-457L307-457Q280-457 256-450Q232-443 214-430Q196-416 186-397Q175-377 175-351L175-351L175-165Q175-139 186-120Q196-100 214-87Q232-73 256-66Q280-59 307-59Z"/><path id="mr535" d="M550 0L495 0Q448 0 428-24Q408-48 403-84L403-84L398-84Q381-39 344-14Q306 12 243 12L243 12Q162 12 114-30Q66-72 66-145L66-145Q66-217 119-256Q171-295 288-295L288-295L398-295L398-346Q398-403 366-432Q334-460 275-460L275-460Q223-460 190-440Q157-419 137-384L137-384L83-424Q93-444 110-463Q127-482 152-497Q177-511 209-520Q241-528 280-528L280-528Q371-528 425-482Q478-436 478-354L478-354L478-70L550-70L550 0ZM257-55L257-55Q288-55 314-63Q339-70 358-83Q377-95 388-113Q398-130 398-150L398-150L398-235L288-235Q216-235 183-215Q150-195 150-157L150-157L150-136Q150-96 179-76Q207-55 257-55Z"/><path id="mb34" d="M526 0L80 0L80-698L526-698L526-575L230-575L230-415L516-415L516-292L230-292L230-123L526-123L526 0Z"/><path id="mb45" d="M227 0L76 0L76-698L346-698Q397-698 437-683Q477-667 505-638Q532-609 546-568Q560-527 560-476L560-476Q560-425 546-384Q532-343 505-314Q477-285 437-270Q397-254 346-254L346-254L227-254L227 0ZM227-577L227-375L308-375Q361-375 382-395Q402-415 402-461L402-461L402-491Q402-537 382-557Q361-577 308-577L308-577L227-577Z"/><path id="mr556" d="M194-55L194-55Q227-55 245-74Q263-93 263-131L263-131L263-385Q263-423 245-442Q227-461 194-461L194-461Q176-461 162-454Q148-447 139-429Q130-411 125-381Q120-350 120-303L120-303L120-213Q120-166 125-136Q130-105 139-87Q148-69 162-62Q176-55 194-55ZM263 200L263-53L260-53Q243-18 221-3Q198 12 169 12L169 12Q139 12 116-1Q92-13 76-44Q60-75 52-127Q44-179 44-258L44-258Q44-337 52-389Q60-441 76-472Q92-503 116-516Q139-528 169-528L169-528Q198-528 221-513Q243-498 260-463L260-463L263-463L263-710L337-710L337-463L340-463Q357-498 380-513Q402-528 431-528L431-528Q461-528 485-516Q508-503 524-472Q540-441 548-389Q556-337 556-258L556-258Q556-179 548-127Q540-75 524-44Q508-13 485-1Q461 12 431 12L431 12Q402 12 380-3Q357-18 340-53L340-53L337-53L337 200L263 200ZM406-55L406-55Q424-55 438-62Q452-69 461-87Q470-105 475-136Q480-166 480-213L480-213L480-303Q480-350 475-381Q470-411 461-429Q452-447 438-454Q424-461 406-461L406-461Q373-461 355-442Q337-423 337-385L337-385L337-131Q337-93 355-74Q373-55 406-55Z"/><path id="mb48" d="M289 12L289 12Q201 12 136-17Q71-46 31-96L31-96L118-192Q156-150 202-130Q247-110 294-110L294-110Q348-110 376-134Q404-158 404-203L404-203Q404-240 383-259Q361-278 310-286L310-286L237-298Q143-314 101-368Q59-421 59-498L59-498Q59-599 125-655Q191-710 310-710L310-710Q391-710 451-685Q511-660 548-617L548-617L463-522Q435-553 397-571Q359-588 311-588L311-588Q210-588 210-505L210-505Q210-469 233-451Q255-433 306-424L306-424L379-411Q464-396 510-347Q556-298 556-215L556-215Q556-166 539-125Q522-83 488-53Q454-22 405-5Q355 12 289 12Z"/><path id="mr555" d="M380-300L467-516L547-516L291 113Q282 135 271 152Q260 168 245 179Q230 189 209 195Q188 200 159 200L159 200L83 200L83 132L203 132L261-10L53-516L135-516L222-300L299-104L303-104L380-300Z"/><path id="mr559" d="M410 0L410-237L405-237Q377-206 342-191Q306-175 251-175L251-175Q167-175 124-215Q80-254 80-334L80-334L80-516L160-516L160-341Q160-293 187-270Q214-247 275-247L275-247Q335-247 373-263Q410-278 410-310L410-310L410-516L490-516L490 0L410 0Z"/><path id="mr610" d="M309 12L309 12Q253 12 209-7Q164-26 133-62Q101-97 84-147Q67-196 67-257L67-257Q67-319 85-369Q102-419 133-455Q164-490 208-509Q251-528 304-528L304-528Q356-528 399-509Q441-490 471-457Q501-423 517-377Q533-331 533-276L533-276L533-238L151-238L151-214Q151-180 162-151Q173-122 194-101Q214-80 244-69Q273-57 309-57L309-57Q361-57 399-81Q437-105 457-147L457-147L516-107Q493-55 440-22Q386 12 309 12ZM304-462L304-462Q271-462 243-450Q215-438 195-417Q174-396 163-368Q151-339 151-305L151-305L151-298L447-298L447-309Q447-343 437-371Q426-399 408-420Q389-440 363-451Q336-462 304-462ZM209-618L209-618Q178-618 165-631Q152-644 152-664L152-664L152-678Q152-698 165-711Q178-724 209-724L209-724Q240-724 253-711Q266-698 266-678L266-678L266-664Q266-644 253-631Q240-618 209-618ZM395-618L395-618Q364-618 351-631Q338-644 338-664L338-664L338-678Q338-698 351-711Q364-724 395-724L395-724Q426-724 439-711Q452-698 452-678L452-678L452-664Q452-644 439-631Q426-618 395-618Z"/><path id="mr543" d="M279 12L279 12Q199 12 147-14Q94-40 61-88L61-88L120-136Q144-98 183-78Q222-57 279-57L279-57Q351-57 383-80Q415-103 415-139L415-139L415-153Q415-192 390-213Q364-233 316-233L316-233L177-233L177-300L306-300Q404-300 404-373L404-373L404-385Q404-418 377-439Q349-459 281-459L281-459Q221-459 185-439Q148-419 125-383L125-383L69-421Q104-472 154-500Q204-528 285-528L285-528Q388-528 439-491Q489-454 489-389L489-389Q489-341 464-313Q439-285 394-274L394-274L394-270Q446-262 473-231Q500-199 500-150L500-150Q500-75 443-32Q385 12 279 12Z"/><path id="mb52" d="M244 0L54 0L11-698L140-698L160-280L166-148L175-148L235-546L370-546L430-148L439-148L445-276L465-698L589-698L546 0L356 0L305-385L295-385L244 0Z"/><path id="mr548" d="M72 0L72-516L182-516L301-253L307-253L426-516L528-516L528 0L451 0L451-323L454-415L448-415L300-88L152-415L146-415L149-323L149 0L72 0Z"/><path id="mr539" d="M135 0L135-516L505-516L505-448L215-448L215 0L135 0Z"/><path id="mr558" d="M497 140L497 0L84 0L84-516L164-516L164-68L405-68L405-516L485-516L485-68L570-68L570 140L497 140Z"/><path id="mr567" d="M68 0L68-68L126-68L171-153Q183-176 197-188Q211-200 231-203L231-203L231-207Q168-210 129-248Q89-285 89-357L89-357Q89-431 134-474Q179-516 258-516L258-516L490-516L490 0L410 0L410-199L285-199L214-66Q196-33 176-17Q155 0 123 0L123 0L68 0ZM410-265L410-448L270-448Q225-448 200-430Q174-412 174-372L174-372L174-341Q174-301 200-283Q225-265 270-265L270-265L410-265Z"/><path id="mb537" d="M301 12L301 12Q184 12 116-63Q48-138 48-279L48-279Q48-397 65-482Q82-567 120-623Q157-679 218-707Q278-735 365-739L365-739L520-746L520-612L380-607Q329-605 296-593Q262-580 243-555Q223-530 215-492Q206-453 204-399L204-399L211-399Q228-449 263-476Q297-502 351-502L351-502Q396-502 433-486Q470-470 497-440Q524-409 539-364Q553-318 553-258L553-258Q553-195 536-145Q518-95 486-60Q453-25 406-7Q359 12 301 12ZM301-98L301-98Q346-98 373-129Q400-160 400-211L400-211L400-289Q400-340 374-366Q348-392 301-392L301-392Q255-392 229-361Q202-330 202-273L202-273L202-217Q202-160 229-129Q255-98 301-98Z"/><path id="mb544" d="M68 0L68-516L212-516L212-350L200-198L206-198L393-516L532-516L532 0L388 0L388-166L400-318L394-318L207 0L68 0Z"/><path id="mb548" d="M50 0L50-516L200-516L303-299L311-299L414-516L550-516L550 0L430 0L430-247L435-338L427-338L300-71L173-338L165-338L170-247L170 0L50 0Z"/><path id="mb550" d="M300 12L300 12Q240 12 192-7Q144-25 111-60Q77-95 59-145Q41-195 41-258L41-258Q41-321 59-371Q77-421 111-456Q144-491 192-510Q240-528 300-528L300-528Q360-528 408-510Q456-491 490-456Q523-421 541-371Q559-321 559-258L559-258Q559-195 541-145Q523-95 490-60Q456-25 408-7Q360 12 300 12ZM300-98L300-98Q350-98 378-129Q406-160 406-217L406-217L406-299Q406-356 378-387Q350-418 300-418L300-418Q250-418 222-387Q194-356 194-299L194-299L194-217Q194-160 222-129Q250-98 300-98Z"/><path id="mb547" d="M22 6L22-115L92-115Q114-142 126-192Q138-242 138-335L138-335L138-516L532-516L532 0L384 0L384-401L271-401L271-331Q271-268 266-221Q261-174 252-140Q243-106 231-83Q219-60 205-46L205-46Q176-17 144-6Q111 6 63 6L63 6L22 6Z"/><path id="mb564" d="M86 0L86-516L234-516L234-369L366-369Q404-369 437-357Q470-345 495-322Q519-298 533-264Q547-230 547-185L547-185Q547-140 533-106Q519-71 494-48Q469-24 436-12Q402 0 362 0L362 0L86 0ZM234-108L334-108Q363-108 381-126Q398-144 398-173L398-173L398-196Q398-225 381-243Q363-261 334-261L334-261L234-261L234-108Z"/><path id="mb551" d="M68 0L68-516L532-516L532 0L384 0L384-401L216-401L216 0L68 0Z"/><path id="mb552" d="M59 200L59-516L207-516L207-422L214-422Q233-468 269-498Q305-528 367-528L367-528Q410-528 446-512Q481-496 507-463Q532-430 547-379Q561-328 561-258L561-258Q561-188 547-137Q532-86 507-53Q481-20 446-4Q410 12 367 12L367 12Q305 12 269-18Q233-47 214-94L214-94L207-94L207 200L59 200ZM303-103L303-103Q353-103 380-134Q407-164 407-218L407-218L407-298Q407-352 380-383Q353-413 303-413L303-413Q264-413 236-394Q207-375 207-334L207-334L207-182Q207-141 236-122Q264-103 303-103Z"/><path id="mb542" d="M241 0L241-210L192-210L141 0L14 0L56-170Q66-210 84-232Q101-253 137-262L137-262L137-269Q108-278 91-297Q74-316 65-351L65-351L22-516L144-516L196-313L241-313L241-516L359-516L359-313L404-313L457-516L578-516L535-351Q526-316 509-297Q492-278 463-269L463-269L463-262Q499-253 517-232Q534-210 544-170L544-170L586 0L458 0L408-210L359-210L359 0L241 0Z"/><path id="mb567" d="M45 0L45-115L105-115L130-159Q155-201 207-201L207-201L207-207Q142-213 101-247Q60-281 60-346L60-346Q60-385 73-417Q86-448 109-470Q132-492 165-504Q197-516 235-516L235-516L523-516L523 0L375 0L375-185L311-185L249-75Q225-32 197-16Q169 0 124 0L124 0L45 0ZM375-283L375-411L265-411Q238-411 224-394Q209-377 209-357L209-357L209-334Q209-314 224-299Q238-283 265-283L265-283L375-283Z"/><path id="mb138" d="M300-204L300-204Q244-204 220-229Q195-253 195-287L195-287L195-322Q195-356 220-381Q244-405 300-405L300-405Q356-405 381-381Q405-356 405-322L405-322L405-287Q405-253 381-229Q356-204 300-204Z"/><path id="mb30" d="M595 0L435 0L391-168L200-168L157 0L5 0L194-698L406-698L595 0ZM368-289L300-553L292-553L224-289L368-289Z"/><path id="mb78" d="M170 151L227-174L417-174L280 151L170 151Z"/><path id="mb12" d="M332-582L332-582Q282-582 263-603Q243-623 243-652L243-652L243-681Q243-711 263-731Q282-751 332-751L332-751Q382-751 402-731Q421-711 421-681L421-681L421-652Q421-623 402-603Q382-582 332-582ZM94 0L94-115L258-115L258-401L94-401L94-516L406-516L406-115L558-115L558 0L94 0Z"/><path id="mb44" d="M300 12L300 12Q160 12 94-83Q27-178 27-349L27-349Q27-520 94-615Q160-710 300-710L300-710Q440-710 507-615Q573-520 573-349L573-349Q573-178 507-83Q440 12 300 12ZM300-109L300-109Q364-109 389-157Q413-204 413-289L413-289L413-410Q413-494 389-542Q364-589 300-589L300-589Q236-589 212-542Q187-494 187-410L187-410L187-288Q187-204 212-157Q236-109 300-109Z"/><path id="mb17" d="M213 0L65 0L65-516L213-516L213-422L219-422Q228-444 241-463Q254-482 273-497Q291-511 316-520Q340-528 371-528L371-528Q408-528 439-516Q470-503 492-478Q514-453 527-417Q539-381 539-334L539-334L539 0L391 0L391-314Q391-414 304-414L304-414Q287-414 271-410Q254-405 241-396Q228-386 221-372Q213-358 213-339L213-339L213 0Z"/><path id="mb5" d="M393 0L393-94L386-94Q366-47 331-18Q295 12 233 12L233 12Q190 12 155-4Q119-20 94-53Q68-86 54-137Q39-188 39-258L39-258Q39-328 54-379Q68-430 94-463Q119-496 155-512Q190-528 233-528L233-528Q264-528 288-520Q312-512 331-498Q349-484 363-465Q376-445 386-422L386-422L393-422L393-740L541-740L541 0L393 0ZM297-103L297-103Q336-103 365-122Q393-141 393-182L393-182L393-334Q393-375 365-394Q336-413 297-413L297-413Q247-413 220-383Q193-352 193-298L193-298L193-218Q193-164 220-134Q247-103 297-103Z"/><path id="mb21" d="M74 0L74-115L193-115L193-401L74-401L74-516L341-516L341-370L348-370Q355-398 368-425Q380-451 400-472Q419-492 447-504Q475-516 513-516L513-516L562-516L562-380L452-380Q397-380 369-348Q341-315 341-268L341-268L341-115L511-115L511 0L74 0Z"/><path id="mb18" d="M300 12L300 12Q240 12 192-7Q144-25 111-60Q77-95 59-145Q41-195 41-258L41-258Q41-321 59-371Q77-421 111-456Q144-491 192-510Q240-528 300-528L300-528Q360-528 408-510Q456-491 490-456Q523-421 541-371Q559-321 559-258L559-258Q559-195 541-145Q523-95 490-60Q456-25 408-7Q360 12 300 12ZM300-98L300-98Q350-98 378-129Q406-160 406-217L406-217L406-299Q406-356 378-387Q350-418 300-418L300-418Q250-418 222-387Q194-356 194-299L194-299L194-217Q194-160 222-129Q250-98 300-98Z"/></defs><rect x="0.75" y="0.75" width="838.5" height="480.5" rx="20" fill="#0B1B33" stroke="#1C3050" stroke-width="1.5"/><rect x="28" y="35" width="18" height="2" rx="1" fill="#9DB4DA"/><g fill="#7F97BD"><use xlink:href="#mb578" transform="translate(56.0 40.0) scale(0.01170)"/><use xlink:href="#mb568" transform="translate(65.2 40.0) scale(0.01170)"/><use xlink:href="#mb578" transform="translate(74.4 40.0) scale(0.01170)"/><use xlink:href="#mb570" transform="translate(92.9 40.0) scale(0.01170)"/><use xlink:href="#mb585" transform="translate(102.1 40.0) scale(0.01170)"/><use xlink:href="#mb662" transform="translate(111.3 40.0) scale(0.01170)"/><use xlink:href="#mb585" transform="translate(129.8 40.0) scale(0.01170)"/><use xlink:href="#mb570" transform="translate(139.0 40.0) scale(0.01170)"/><use xlink:href="#mb599" transform="translate(148.2 40.0) scale(0.01170)"/><use xlink:href="#mb575" transform="translate(157.4 40.0) scale(0.01170)"/><use xlink:href="#mb568" transform="translate(166.6 40.0) scale(0.01170)"/><use xlink:href="#mb581" transform="translate(175.9 40.0) scale(0.01170)"/><use xlink:href="#mb582" transform="translate(185.1 40.0) scale(0.01170)"/></g><rect x="28" y="74" width="220" height="300" rx="16" fill="none" stroke="#1C3050" stroke-width="1.5" stroke-dasharray="5 6"/><g fill="#7F97BD"><use xlink:href="#mb588" transform="translate(44.0 98.0) scale(0.00990)"/><use xlink:href="#mb584" transform="translate(51.5 98.0) scale(0.00990)"/><use xlink:href="#mb582" transform="translate(59.1 98.0) scale(0.00990)"/><use xlink:href="#mb581" transform="translate(66.6 98.0) scale(0.00990)"/><use xlink:href="#mb586" transform="translate(74.2 98.0) scale(0.00990)"/><use xlink:href="#mb70" transform="translate(81.7 98.0) scale(0.00990)"/><use xlink:href="#mb582" transform="translate(89.2 98.0) scale(0.00990)"/><use xlink:href="#mb588" transform="translate(96.8 98.0) scale(0.00990)"/><use xlink:href="#mb576" transform="translate(104.3 98.0) scale(0.00990)"/><use xlink:href="#mb585" transform="translate(111.9 98.0) scale(0.00990)"/></g><rect x="288" y="74" width="524" height="300" rx="16" fill="none" stroke="#1C3050" stroke-width="1.5" stroke-dasharray="5 6"/><g fill="#7F97BD"><use xlink:href="#mb569" transform="translate(304.0 98.0) scale(0.00990)"/><use xlink:href="#mb597" transform="translate(311.5 98.0) scale(0.00990)"/><use xlink:href="#mb578" transform="translate(319.1 98.0) scale(0.00990)"/><use xlink:href="#mb70" transform="translate(326.6 98.0) scale(0.00990)"/><use xlink:href="#mb582" transform="translate(334.2 98.0) scale(0.00990)"/><use xlink:href="#mb588" transform="translate(341.7 98.0) scale(0.00990)"/><use xlink:href="#mb576" transform="translate(349.2 98.0) scale(0.00990)"/><use xlink:href="#mb585" transform="translate(356.8 98.0) scale(0.00990)"/></g><path d="M138 190 V270" fill="none" stroke="#5B7196" stroke-width="1.6" marker-end="url(#arrow)"/><path d="M223 309 C 263 309, 288 232, 324 232" fill="none" stroke="#5B7196" stroke-width="1.6" marker-end="url(#arrow)"/><path d="M502 219 C 558 219, 568 155, 613 155" fill="none" stroke="#5B7196" stroke-width="1.6" marker-end="url(#arrow)" marker-start="url(#arrow)"/><path d="M502 245 C 558 245, 568 309, 613 309" fill="none" stroke="#5B7196" stroke-width="1.6" marker-end="url(#arrow)" marker-start="url(#arrow)"/><path d="M702 190 V270" fill="none" stroke="#5B7196" stroke-width="1.6" marker-end="url(#arrow)"/><path d="M138 404 V348" fill="none" stroke="#5B7196" stroke-width="1.6" stroke-dasharray="4 6" marker-end="url(#arrow)"/><path d="M413 404 V271" fill="none" stroke="#5B7196" stroke-width="1.6" stroke-dasharray="4 6" marker-end="url(#arrow)"/><path d="M702 404 V348" fill="none" stroke="#5B7196" stroke-width="1.6" stroke-dasharray="4 6" marker-end="url(#arrow)"/><rect x="53.75" y="120.75" width="168.5" height="68.5" rx="14" fill="#1E4178" stroke="#2A4470" stroke-width="1.5"/><g fill="#F1F5FB"><use xlink:href="#mb576" transform="translate(94.3 150.0) scale(0.01620)"/><use xlink:href="#mb576" transform="translate(104.0 150.0) scale(0.01620)"/><use xlink:href="#mb70" transform="translate(113.7 150.0) scale(0.01620)"/><use xlink:href="#mb535" transform="translate(123.4 150.0) scale(0.01620)"/><use xlink:href="#mb539" transform="translate(133.1 150.0) scale(0.01620)"/><use xlink:href="#mb541" transform="translate(142.9 150.0) scale(0.01620)"/><use xlink:href="#mb549" transform="translate(152.6 150.0) scale(0.01620)"/><use xlink:href="#mb554" transform="translate(162.3 150.0) scale(0.01620)"/><use xlink:href="#mb563" transform="translate(172.0 150.0) scale(0.01620)"/></g><g fill="#C9D6EA"><use xlink:href="#mr551" transform="translate(100.9 172.0) scale(0.01125)"/><use xlink:href="#mr550" transform="translate(107.6 172.0) scale(0.01125)"/><use xlink:href="#mr544" transform="translate(114.4 172.0) scale(0.01125)"/><use xlink:href="#mr553" transform="translate(121.1 172.0) scale(0.01125)"/><use xlink:href="#mr546" transform="translate(127.9 172.0) scale(0.01125)"/></g><g fill="#C9D6EA"><use xlink:href="#mr547" transform="translate(141.4 172.0) scale(0.01125)"/><use xlink:href="#mr544" transform="translate(148.1 172.0) scale(0.01125)"/><use xlink:href="#mr540" transform="translate(154.9 172.0) scale(0.01125)"/><use xlink:href="#mr550" transform="translate(161.6 172.0) scale(0.01125)"/><use xlink:href="#mr538" transform="translate(168.4 172.0) scale(0.01125)"/></g><rect x="53.75" y="274.75" width="168.5" height="68.5" rx="14" fill="#16325C" stroke="#2A4470" stroke-width="1.5"/><g fill="#F1F5FB"><use xlink:href="#mb32" transform="translate(123.4 304.0) scale(0.01620)"/><use xlink:href="#mb47" transform="translate(133.1 304.0) scale(0.01620)"/><use xlink:href="#mb42" transform="translate(142.9 304.0) scale(0.01620)"/></g><g fill="#C9D6EA"><use xlink:href="#mr546" transform="translate(80.6 326.0) scale(0.01125)"/><use xlink:href="#mr547" transform="translate(87.4 326.0) scale(0.01125)"/><use xlink:href="#mr544" transform="translate(94.1 326.0) scale(0.01125)"/><use xlink:href="#mr541" transform="translate(100.9 326.0) scale(0.01125)"/><use xlink:href="#mr549" transform="translate(107.6 326.0) scale(0.01125)"/><use xlink:href="#mr554" transform="translate(114.4 326.0) scale(0.01125)"/><use xlink:href="#mr563" transform="translate(121.1 326.0) scale(0.01125)"/></g><g fill="#C9D6EA"><use xlink:href="#mr138" transform="translate(134.6 326.0) scale(0.01125)"/></g><g fill="#C9D6EA"><use xlink:href="#mr538" transform="translate(148.1 326.0) scale(0.01125)"/><use xlink:href="#mr550" transform="translate(154.9 326.0) scale(0.01125)"/><use xlink:href="#mr552" transform="translate(161.6 326.0) scale(0.01125)"/><use xlink:href="#mr550" transform="translate(168.4 326.0) scale(0.01125)"/><use xlink:href="#mr549" transform="translate(175.1 326.0) scale(0.01125)"/><use xlink:href="#mr546" transform="translate(181.9 326.0) scale(0.01125)"/><use xlink:href="#mr535" transform="translate(188.6 326.0) scale(0.01125)"/></g><rect x="328.75" y="197.75" width="168.5" height="68.5" rx="14" fill="#16325C" stroke="#2A4470" stroke-width="1.5"/><g fill="#F1F5FB"><use xlink:href="#mb34" transform="translate(398.4 227.0) scale(0.01620)"/><use xlink:href="#mb47" transform="translate(408.1 227.0) scale(0.01620)"/><use xlink:href="#mb45" transform="translate(417.9 227.0) scale(0.01620)"/></g><g fill="#C9D6EA"><use xlink:href="#mr556" transform="translate(362.4 249.0) scale(0.01125)"/><use xlink:href="#mr544" transform="translate(369.1 249.0) scale(0.01125)"/><use xlink:href="#mr549" transform="translate(375.9 249.0) scale(0.01125)"/><use xlink:href="#mr535" transform="translate(382.6 249.0) scale(0.01125)"/><use xlink:href="#mr549" transform="translate(389.4 249.0) scale(0.01125)"/><use xlink:href="#mr553" transform="translate(396.1 249.0) scale(0.01125)"/><use xlink:href="#mr563" transform="translate(402.9 249.0) scale(0.01125)"/></g><g fill="#C9D6EA"><use xlink:href="#mr138" transform="translate(416.4 249.0) scale(0.01125)"/></g><g fill="#C9D6EA"><use xlink:href="#mr553" transform="translate(429.9 249.0) scale(0.01125)"/><use xlink:href="#mr546" transform="translate(436.6 249.0) scale(0.01125)"/><use xlink:href="#mr547" transform="translate(443.4 249.0) scale(0.01125)"/><use xlink:href="#mr535" transform="translate(450.1 249.0) scale(0.01125)"/><use xlink:href="#mr540" transform="translate(456.9 249.0) scale(0.01125)"/></g><rect x="617.75" y="120.75" width="168.5" height="68.5" rx="14" fill="#16325C" stroke="#2A4470" stroke-width="1.5"/><g fill="#F1F5FB"><use xlink:href="#mb42" transform="translate(687.4 150.0) scale(0.01620)"/><use xlink:href="#mb34" transform="translate(697.1 150.0) scale(0.01620)"/><use xlink:href="#mb48" transform="translate(706.9 150.0) scale(0.01620)"/></g><g fill="#C9D6EA"><use xlink:href="#mr555" transform="translate(644.6 172.0) scale(0.01125)"/><use xlink:href="#mr559" transform="translate(651.4 172.0) scale(0.01125)"/><use xlink:href="#mr610" transform="translate(658.1 172.0) scale(0.01125)"/><use xlink:href="#mr554" transform="translate(664.9 172.0) scale(0.01125)"/></g><g fill="#C9D6EA"><use xlink:href="#mr551" transform="translate(678.4 172.0) scale(0.01125)"/><use xlink:href="#mr552" transform="translate(685.1 172.0) scale(0.01125)"/><use xlink:href="#mr550" transform="translate(691.9 172.0) scale(0.01125)"/><use xlink:href="#mr544" transform="translate(698.6 172.0) scale(0.01125)"/><use xlink:href="#mr543" transform="translate(705.4 172.0) scale(0.01125)"/><use xlink:href="#mr538" transform="translate(712.1 172.0) scale(0.01125)"/><use xlink:href="#mr550" transform="translate(718.9 172.0) scale(0.01125)"/><use xlink:href="#mr540" transform="translate(725.6 172.0) scale(0.01125)"/><use xlink:href="#mr553" transform="translate(732.4 172.0) scale(0.01125)"/><use xlink:href="#mr554" transform="translate(739.1 172.0) scale(0.01125)"/><use xlink:href="#mr538" transform="translate(745.9 172.0) scale(0.01125)"/><use xlink:href="#mr535" transform="translate(752.6 172.0) scale(0.01125)"/></g><rect x="617.75" y="274.75" width="168.5" height="68.5" rx="14" fill="#16325C" stroke="#2A4470" stroke-width="1.5"/><g fill="#F1F5FB"><use xlink:href="#mb52" transform="translate(687.4 304.0) scale(0.01620)"/><use xlink:href="#mb42" transform="translate(697.1 304.0) scale(0.01620)"/><use xlink:href="#mb48" transform="translate(706.9 304.0) scale(0.01620)"/></g><g fill="#C9D6EA"><use xlink:href="#mr551" transform="translate(641.3 326.0) scale(0.01125)"/><use xlink:href="#mr552" transform="translate(648.0 326.0) scale(0.01125)"/><use xlink:href="#mr544" transform="translate(654.8 326.0) scale(0.01125)"/><use xlink:href="#mr610" transform="translate(661.5 326.0) scale(0.01125)"/><use xlink:href="#mr548" transform="translate(668.3 326.0) scale(0.01125)"/><use xlink:href="#mr546" transform="translate(675.0 326.0) scale(0.01125)"/><use xlink:href="#mr535" transform="translate(681.8 326.0) scale(0.01125)"/></g><g fill="#C9D6EA"><use xlink:href="#mr138" transform="translate(695.3 326.0) scale(0.01125)"/></g><g fill="#C9D6EA"><use xlink:href="#mr550" transform="translate(708.8 326.0) scale(0.01125)"/><use xlink:href="#mr554" transform="translate(715.5 326.0) scale(0.01125)"/><use xlink:href="#mr539" transform="translate(722.3 326.0) scale(0.01125)"/><use xlink:href="#mr552" transform="translate(729.0 326.0) scale(0.01125)"/><use xlink:href="#mr555" transform="translate(735.8 326.0) scale(0.01125)"/><use xlink:href="#mr543" transform="translate(742.5 326.0) scale(0.01125)"/><use xlink:href="#mr546" transform="translate(749.3 326.0) scale(0.01125)"/><use xlink:href="#mr535" transform="translate(756.0 326.0) scale(0.01125)"/></g><rect x="91.12" y="221" width="93.76" height="21" rx="10.5" fill="#0B1B33" stroke="#1C3050"/><g fill="#B9C6D8"><use xlink:href="#mr558" transform="translate(99.1 236.1) scale(0.01080)"/><use xlink:href="#mr541" transform="translate(105.6 236.1) scale(0.01080)"/><use xlink:href="#mr547" transform="translate(112.1 236.1) scale(0.01080)"/><use xlink:href="#mr541" transform="translate(118.6 236.1) scale(0.01080)"/><use xlink:href="#mr538" transform="translate(125.0 236.1) scale(0.01080)"/><use xlink:href="#mr563" transform="translate(131.5 236.1) scale(0.01080)"/><use xlink:href="#mr541" transform="translate(138.0 236.1) scale(0.01080)"/></g><g fill="#B9C6D8"><use xlink:href="#mr547" transform="translate(151.0 236.1) scale(0.01080)"/><use xlink:href="#mr544" transform="translate(157.4 236.1) scale(0.01080)"/><use xlink:href="#mr540" transform="translate(163.9 236.1) scale(0.01080)"/><use xlink:href="#mr563" transform="translate(170.4 236.1) scale(0.01080)"/></g><rect x="245.56" y="261" width="54.88" height="21" rx="10.5" fill="#0B1B33" stroke="#1C3050"/><g fill="#B9C6D8"><use xlink:href="#mr543" transform="translate(253.6 276.1) scale(0.01080)"/><use xlink:href="#mr535" transform="translate(260.0 276.1) scale(0.01080)"/><use xlink:href="#mr546" transform="translate(266.5 276.1) scale(0.01080)"/><use xlink:href="#mr535" transform="translate(273.0 276.1) scale(0.01080)"/><use xlink:href="#mr543" transform="translate(279.5 276.1) scale(0.01080)"/><use xlink:href="#mr563" transform="translate(286.0 276.1) scale(0.01080)"/></g><rect x="527.32" y="173" width="61.36" height="21" rx="10.5" fill="#0B1B33" stroke="#1C3050"/><g fill="#B9C6D8"><use xlink:href="#mr543" transform="translate(535.3 188.1) scale(0.01080)"/><use xlink:href="#mr535" transform="translate(541.8 188.1) scale(0.01080)"/><use xlink:href="#mr540" transform="translate(548.3 188.1) scale(0.01080)"/><use xlink:href="#mr535" transform="translate(554.8 188.1) scale(0.01080)"/><use xlink:href="#mr549" transform="translate(561.2 188.1) scale(0.01080)"/><use xlink:href="#mr544" transform="translate(567.7 188.1) scale(0.01080)"/><use xlink:href="#mr567" transform="translate(574.2 188.1) scale(0.01080)"/></g><rect x="527.32" y="269" width="61.36" height="21" rx="10.5" fill="#0B1B33" stroke="#1C3050"/><g fill="#B9C6D8"><use xlink:href="#mr550" transform="translate(535.3 284.1) scale(0.01080)"/><use xlink:href="#mr553" transform="translate(541.8 284.1) scale(0.01080)"/><use xlink:href="#mr554" transform="translate(548.3 284.1) scale(0.01080)"/><use xlink:href="#mr535" transform="translate(554.8 284.1) scale(0.01080)"/><use xlink:href="#mr554" transform="translate(561.2 284.1) scale(0.01080)"/><use xlink:href="#mr546" transform="translate(567.7 284.1) scale(0.01080)"/><use xlink:href="#mr544" transform="translate(574.2 284.1) scale(0.01080)"/></g><rect x="638.92" y="221" width="126.16" height="21" rx="10.5" fill="#0B1B33" stroke="#1C3050"/><g fill="#B9C6D8"><use xlink:href="#mr539" transform="translate(646.9 236.1) scale(0.01080)"/><use xlink:href="#mr550" transform="translate(653.4 236.1) scale(0.01080)"/><use xlink:href="#mr554" transform="translate(659.9 236.1) scale(0.01080)"/><use xlink:href="#mr550" transform="translate(666.4 236.1) scale(0.01080)"/><use xlink:href="#mr538" transform="translate(672.8 236.1) scale(0.01080)"/><use xlink:href="#mr535" transform="translate(679.3 236.1) scale(0.01080)"/><use xlink:href="#mr567" transform="translate(685.8 236.1) scale(0.01080)"/></g><g fill="#B9C6D8"><use xlink:href="#mr551" transform="translate(698.8 236.1) scale(0.01080)"/><use xlink:href="#mr552" transform="translate(705.2 236.1) scale(0.01080)"/><use xlink:href="#mr550" transform="translate(711.7 236.1) scale(0.01080)"/><use xlink:href="#mr540" transform="translate(718.2 236.1) scale(0.01080)"/><use xlink:href="#mr555" transform="translate(724.7 236.1) scale(0.01080)"/><use xlink:href="#mr546" transform="translate(731.2 236.1) scale(0.01080)"/><use xlink:href="#mr558" transform="translate(737.6 236.1) scale(0.01080)"/><use xlink:href="#mr544" transform="translate(744.1 236.1) scale(0.01080)"/><use xlink:href="#mr567" transform="translate(750.6 236.1) scale(0.01080)"/></g><rect x="53.75" y="404.75" width="732.5" height="48.5" rx="14" fill="#10233F" stroke="#2A4470" stroke-width="1.5"/><g transform="translate(73 418) scale(0.9166666666666666)" fill="none" stroke="#9DB4DA" stroke-width="2" stroke-linecap="round" stroke-linejoin="round">
  <rect width="14" height="20" x="5" y="2" rx="2" ry="2" />
  <path d="M12 18h.01" />
</g><g fill="#F1F5FB"><use xlink:href="#mb570" transform="translate(108.0 434.4) scale(0.01440)"/><use xlink:href="#mb541" transform="translate(116.6 434.4) scale(0.01440)"/><use xlink:href="#mb537" transform="translate(125.3 434.4) scale(0.01440)"/><use xlink:href="#mb70" transform="translate(133.9 434.4) scale(0.01440)"/></g><g fill="#F1F5FB"><use xlink:href="#mb544" transform="translate(151.2 434.4) scale(0.01440)"/></g><g fill="#F1F5FB"><use xlink:href="#mb548" transform="translate(168.5 434.4) scale(0.01440)"/><use xlink:href="#mb550" transform="translate(177.1 434.4) scale(0.01440)"/><use xlink:href="#mb537" transform="translate(185.8 434.4) scale(0.01440)"/><use xlink:href="#mb544" transform="translate(194.4 434.4) scale(0.01440)"/><use xlink:href="#mb547" transform="translate(203.0 434.4) scale(0.01440)"/><use xlink:href="#mb564" transform="translate(211.7 434.4) scale(0.01440)"/><use xlink:href="#mb549" transform="translate(220.3 434.4) scale(0.01440)"/><use xlink:href="#mb563" transform="translate(229.0 434.4) scale(0.01440)"/><use xlink:href="#mb541" transform="translate(237.6 434.4) scale(0.01440)"/></g><g fill="#F1F5FB"><use xlink:href="#mb551" transform="translate(254.9 434.4) scale(0.01440)"/><use xlink:href="#mb552" transform="translate(263.5 434.4) scale(0.01440)"/><use xlink:href="#mb544" transform="translate(272.2 434.4) scale(0.01440)"/><use xlink:href="#mb547" transform="translate(280.8 434.4) scale(0.01440)"/><use xlink:href="#mb550" transform="translate(289.4 434.4) scale(0.01440)"/><use xlink:href="#mb542" transform="translate(298.1 434.4) scale(0.01440)"/><use xlink:href="#mb541" transform="translate(306.7 434.4) scale(0.01440)"/><use xlink:href="#mb549" transform="translate(315.4 434.4) scale(0.01440)"/><use xlink:href="#mb544" transform="translate(324.0 434.4) scale(0.01440)"/><use xlink:href="#mb567" transform="translate(332.6 434.4) scale(0.01440)"/></g><g fill="#F1F5FB"><use xlink:href="#mb138" transform="translate(349.9 434.4) scale(0.01440)"/></g><g fill="#F1F5FB"><use xlink:href="#mb45" transform="translate(367.2 434.4) scale(0.01440)"/><use xlink:href="#mb52" transform="translate(375.8 434.4) scale(0.01440)"/><use xlink:href="#mb30" transform="translate(384.5 434.4) scale(0.01440)"/><use xlink:href="#mb78" transform="translate(393.1 434.4) scale(0.01440)"/></g><g fill="#F1F5FB"><use xlink:href="#mb12" transform="translate(410.4 434.4) scale(0.01440)"/><use xlink:href="#mb44" transform="translate(419.0 434.4) scale(0.01440)"/><use xlink:href="#mb48" transform="translate(427.7 434.4) scale(0.01440)"/><use xlink:href="#mb78" transform="translate(436.3 434.4) scale(0.01440)"/></g><g fill="#F1F5FB"><use xlink:href="#mb30" transform="translate(453.6 434.4) scale(0.01440)"/><use xlink:href="#mb17" transform="translate(462.2 434.4) scale(0.01440)"/><use xlink:href="#mb5" transform="translate(470.9 434.4) scale(0.01440)"/><use xlink:href="#mb21" transform="translate(479.5 434.4) scale(0.01440)"/><use xlink:href="#mb18" transform="translate(488.2 434.4) scale(0.01440)"/><use xlink:href="#mb12" transform="translate(496.8 434.4) scale(0.01440)"/><use xlink:href="#mb5" transform="translate(505.4 434.4) scale(0.01440)"/></g></svg>
