<svg xmlns="http://www.w3.org/2000/svg" xmlns:xlink="http://www.w3.org/1999/xlink" width="62" height="30" viewBox="0 0 62 30" role="img" aria-label="IT"><title>IT</title><defs><marker id="arrow" viewBox="0 0 10 10" refX="9" refY="5" markerWidth="7" markerHeight="7" orient="auto-start-reverse"><path d="M0 0L10 5L0 10z" fill="#5B7196"/></marker></defs><defs><path id="lb44" d="M425 0L72 0L72-93L201-93L201-562L72-562L72-655L425-655L425-562L305-562L305-93L425-93L425 0Z"/><path id="lb55" d="M197-561L28-561L28-655L470-655L470-561L301-561L301 0L197 0L197-561Z"/></defs><rect x="0.75" y="0.75" width="60.5" height="28.5" rx="14.25" fill="#DCE6F5" stroke="#DCE6F5" stroke-width="1.5"/><defs><clipPath id="flag"><rect x="10" y="7.5" width="20" height="15" rx="3"/></clipPath></defs><g clip-path="url(#flag)"><svg x="10" y="7.5" width="20" height="15" viewBox="0 0 640 480" preserveAspectRatio="xMidYMid slice">
  <g fill-rule="evenodd" stroke-width="1pt">
    <path fill="#fff" d="M0 0h640v480H0z"/>
    <path fill="#009246" d="M0 0h213.3v480H0z"/>
    <path fill="#ce2b37" d="M426.7 0H640v480H426.7z"/>
  </g>
</svg></g><rect x="10.25" y="7.75" width="19.5" height="14.5" rx="3" fill="none" stroke="#FFFFFF" stroke-opacity="0.3" stroke-width="0.5"/><g fill="#0B1B33"><use xlink:href="#lb44" transform="translate(37.0 19.4) scale(0.01300)"/><use xlink:href="#lb55" transform="translate(43.5 19.4) scale(0.01300)"/></g></svg>
