<svg xmlns="http://www.w3.org/2000/svg" xmlns:xlink="http://www.w3.org/1999/xlink" width="39" height="30" viewBox="0 0 39 30" role="img" aria-label="TR"><title>TR</title><defs><marker id="arrow" viewBox="0 0 10 10" refX="9" refY="5" markerWidth="7" markerHeight="7" orient="auto-start-reverse"><path d="M0 0L10 5L0 10z" fill="#5B7196"/></marker></defs><defs><path id="lb55" d="M197-561L28-561L28-655L470-655L470-561L301-561L301 0L197 0L197-561Z"/><path id="lb53" d="M248-239L248-239Q194-236 188-236L188-236L141-236L141 0L37 0L37-655L243-655Q352-655 408-607Q464-558 464-445L464-445Q464-315 352-262L352-262Q421-131 468 0L468 0L356 0Q311-121 248-239ZM223-563L223-563L141-563L141-332L224-332Q358-332 358-445L358-445Q358-508 326-536Q294-563 223-563Z"/></defs><rect x="0.75" y="0.75" width="37.5" height="28.5" rx="14.25" fill="#0B1B33" stroke="#2A4470" stroke-width="1.5"/><g fill="#F1F5FB"><use xlink:href="#lb55" transform="translate(13.0 19.4) scale(0.01300)"/><use xlink:href="#lb53" transform="translate(19.5 19.4) scale(0.01300)"/></g></svg>
