<svg xmlns="http://www.w3.org/2000/svg" xmlns:xlink="http://www.w3.org/1999/xlink" width="840" height="462" viewBox="0 0 840 462" role="img" aria-label="AI agents feed qualified leads to CRM; CRM sends orders to ERP; ERP exchanges work orders with MES and stock levels with WMS; MES sends finished goods to WMS; web and mobile apps sit on top of CRM, ERP and WMS."><title>AI agents feed qualified leads to CRM; CRM sends orders to ERP; ERP exchanges work orders with MES and stock levels with WMS; MES sends finished goods to WMS; web and mobile apps sit on top of CRM, ERP and WMS.</title><defs><linearGradient id="g" x1="0" y1="0" x2="1" y2="1"><stop offset="0" stop-color="#512BD4"/><stop offset="1" stop-color="#2563EB"/></linearGradient><marker id="arrow" viewBox="0 0 10 10" refX="9" refY="5" markerWidth="7" markerHeight="7" orient="auto-start-reverse"><path d="M0 0L10 5L0 10z" fill="#94A3B8"/></marker></defs><defs><path id="b41" d="M168 0L64 0L64-655L448-655L448-561L168-561L168-339L407-339L407-249L168-249L168 0Z"/><path id="b53" d="M248-239L248-239Q194-236 188-236L188-236L141-236L141 0L37 0L37-655L243-655Q352-655 408-607Q464-558 464-445L464-445Q464-315 352-262L352-262Q421-131 468 0L468 0L356 0Q311-121 248-239ZM223-563L223-563L141-563L141-332L224-332Q358-332 358-445L358-445Q358-508 326-536Q294-563 223-563Z"/><path id="b50" d="M251 10Q129 10 77-74Q25-158 25-332Q25-505 79-585Q132-665 253-665Q373-665 424-586Q475-507 475-330Q475-152 424-71Q373 10 251 10ZM249-84Q319-84 344-136Q369-187 369-331Q369-475 345-523Q320-571 253-571Q185-571 158-519Q131-467 131-334Q131-200 155-142Q179-84 249-84Z"/><path id="b49" d="M469 0L375 0L375-87L128-493L125-493L125 0L31 0L31-655L125-655L371-245L375-245L375-655L469-655L469 0Z"/><path id="b55" d="M197-561L28-561L28-655L470-655L470-561L301-561L301 0L197 0L197-561Z"/><path id="b44" d="M425 0L72 0L72-93L201-93L201-562L72-562L72-655L425-655L425-562L305-562L305-93L425-93L425 0Z"/><path id="b38" d="M446-107L446-107L464-20Q362 10 293 10Q223 10 181-6Q138-22 106-60L106-60Q40-137 40-334L40-334Q40-665 282-665L282-665Q366-665 451-636L451-636L429-551Q351-572 284-572Q216-572 181-520Q146-468 146-332Q146-195 175-139Q203-82 281-82Q358-82 446-107Z"/><path id="b40" d="M446 0L60 0L60-655L443-655L443-561L164-561L164-379L416-379L416-289L164-289L164-94L446-94L446 0Z"/><path id="b37" d="M237 0L45 0L45-655L246-655Q464-655 464-485L464-485Q464-430 436-390Q408-350 360-340L360-340Q416-332 448-292Q479-251 480-186L480-186Q480 0 237 0L237 0ZM252-90Q318-90 346-119Q374-148 374-197Q374-245 344-267Q313-289 247-289L247-289L149-289L149-90L252-90ZM362-477L362-477Q362-565 253-565L253-565L149-565L149-379L245-379Q362-379 362-477Z"/><path id="b36" d="M108 0L0 0L159-655L346-655L500 0L390 0L359-125L137-125L108 0ZM158-218L337-218L263-562L241-562L158-218Z"/><path id="b46" d="M337-610L360-655L473-655Q372-455 293-337L293-337Q322-292 368-208L368-208L480 0L367 0Q266-195 212-281L212-281L150-275L150 0L49 0L49-655L150-655L150-370L204-378Q270-480 337-610L337-610Z"/><path id="b66" d="M216-86L216-86Q244-86 278-99Q312-112 332-128L332-128L332-198Q272-203 234-203L234-203Q151-203 151-141L151-141Q151-86 216-86ZM200 11L200 11Q40 11 40-141L40-141Q40-222 92-255Q143-287 234-287L234-287Q277-287 332-282L332-282Q332-342 315-364Q298-386 256-386Q214-386 158-376Q102-366 72-356L72-356L53-451Q158-483 258-483Q358-483 397-439Q435-395 435-290L435-290L435-87L446 1L343 11L333-35Q249 11 200 11Z"/><path id="b72" d="M456-478L456-115L459 23Q459 109 401 155Q343 201 244 201Q145 201 52 168L52 168L77 76Q167 106 226 106Q285 106 321 86Q356 65 356 24L356 24Q356 16 355-8Q353-31 353-44L353-44Q289 1 229 1L229 1Q137 1 89-56Q41-113 41-238Q41-362 96-422Q150-481 245-481L245-481Q266-481 299-471Q331-461 353-449L353-449L355-478L456-478ZM236-94L236-94Q287-94 353-144L353-144L353-350Q296-386 248-386L248-386Q152-386 152-240Q152-94 236-94Z"/><path id="b70" d="M49-237Q49-358 103-421Q157-483 253-483Q349-483 402-427Q454-370 456-261L456-261L452-187L160-187Q169-79 268-79L268-79Q337-79 414-104L414-104L435-17Q403-6 352 3Q301 11 268 11L268 11Q49 11 49-237L49-237ZM257-390L257-390Q210-390 187-363Q163-335 160-271L160-271L345-271Q345-390 257-390Z"/><path id="b79" d="M56-475L156-475L158-446Q239-483 285-483L285-483Q366-483 405-436Q443-388 443-287L443-287L443 0L340 0L340-284Q340-332 323-359Q306-386 270-386Q234-386 159-351L159-351L159 0L56 0L56-475Z"/><path id="b85" d="M140-182L140-383L64-383L64-475L140-475L140-589L243-599L243-475L421-475L421-383L243-383L243-182Q243-127 254-105L254-105Q266-83 306-83Q346-83 412-99L412-99L429-9Q353 11 299 11L299 11Q203 11 172-32Q140-75 140-182L140-182Z"/><path id="b84" d="M63-22L63-22L85-113Q180-83 236-83Q292-83 312-94L312-94Q332-104 332-130Q332-156 314-167Q296-178 246-190L246-190Q147-214 108-244Q69-273 69-340L69-340Q69-483 253-483L253-483Q332-483 436-457L436-457L417-362Q318-390 264-390Q210-390 192-381Q173-371 173-348Q173-325 192-315Q210-304 287-283Q364-262 400-235Q436-207 436-141L436-141Q436 10 250 10L250 10Q163 10 63-22Z"/><path id="r77" d="M228-615L109-614L108-663L281-664L281-50L403-50L403 0L105 0L105-50L228-50L228-615Z"/><path id="r70" d="M67-237Q67-352 115-417Q162-481 253-481Q344-481 389-421Q433-361 433-261L433-261L430-211L124-211Q129-136 164-90Q199-43 261-43Q322-43 405-72L405-72L420-22Q339 9 268 9L268 9Q170 9 119-57Q67-122 67-237ZM257-430L257-430Q131-430 124-261L124-261L376-261Q376-430 257-430Z"/><path id="r66" d="M218-43L218-43Q255-43 299-67Q342-90 362-110L362-110L362-229Q296-234 236-234Q176-234 146-209Q116-183 116-140L116-140Q116-43 218-43ZM217 9L217 9Q144 9 102-29Q60-66 60-135Q60-204 106-242L106-242Q152-281 228-281Q304-281 362-275L362-275Q362-364 340-397Q318-429 251-429Q184-429 93-397L93-397L78-447Q171-481 246-481L246-481Q345-481 380-437Q415-393 415-283L415-283L415-73L423 3L372 8L362-52Q339-32 297-12Q255 9 217 9Z"/><path id="r69" d="M375-664L428-664L428-83L438 4L387 10L377-43Q302 9 239 9L239 9Q150 9 101-57Q51-123 51-237Q51-350 106-416Q161-481 256-481L256-481Q312-481 375-454L375-454L375-664ZM108-238Q108-150 143-97Q177-43 242-43Q307-43 375-100L375-100L375-400Q354-410 318-420Q281-429 258-429L258-429Q187-429 148-378Q108-326 108-238Z"/><path id="r74" d="M239-425L123-425L123-475L292-475L292-50L408-50L408 0L115 0L115-50L239-50L239-425ZM261-571Q243-571 231-584Q218-596 218-616Q218-635 231-647Q243-658 261-658Q279-658 291-647Q302-636 302-616Q302-596 291-584Q279-571 261-571Z"/><path id="r84" d="M78-23L78-23L91-75Q190-42 244-42Q298-42 328-66Q357-89 357-128Q357-167 334-186Q310-204 236-221Q162-238 125-270L125-270Q88-300 88-360Q88-420 134-452Q179-483 251-483Q323-483 407-451L407-451L393-404Q308-432 256-432Q204-432 174-414L174-414Q144-394 144-360Q144-326 171-307Q197-288 273-269Q349-250 381-221Q413-191 413-128Q413-65 370-28L370-28Q328 9 250 9Q172 9 78-23Z"/><path id="r68" d="M413-320L359-320L359-419Q310-430 281-430L281-430Q209-430 174-379Q138-328 138-238Q138-148 174-96Q210-43 281-43L281-43Q326-43 406-71L406-71L421-21Q342 9 282 9L282 9Q184 9 133-57Q81-122 81-239Q81-356 132-419Q183-481 282-481L282-481Q348-481 413-460L413-460L413-320Z"/><path id="r80" d="M59-236Q59-481 250-481Q441-481 441-236Q441 9 250 9Q59 9 59-236ZM250-429Q116-429 116-236Q116-43 250-43Q384-43 384-236Q384-429 250-429Z"/><path id="r87" d="M203 0L53-475L113-475L244-48L262-48L388-475L448-475L303 0L203 0Z"/><path id="r83" d="M185-425L91-425L91-475L238-475L240-417Q272-437 330-457Q388-477 432-481L432-481L432-422Q391-419 331-402Q270-385 240-367L240-367L240-50L400-50L400 0L91 0L91-50L185-50L185-425Z"/><path id="r90" d="M227 7L53-475L113-475L254-71L262-71L388-475L448-475L264 81Q238 160 210 182Q181 204 94 206L94 206L94 155Q150 154 169 139Q188 124 204 76L204 76L227 7Z"/><path id="b48" d="M115 0L21 0L21-655L120-655L246-313L254-313L380-655L479-655L479 0L385 0L388-443L384-443L299-222L201-222L116-443L112-443L115 0Z"/><path id="r86" d="M425 0L374 0L372-41Q276 9 212 9Q148 9 111-35Q74-79 74-155L74-155L74-475L127-475L127-155Q127-106 151-75Q174-43 222-43Q270-43 372-93L372-93L372-475L425-475L425 0Z"/><path id="r85" d="M160-182L160-418L76-418L76-468L160-468L160-583L213-593L213-468L403-468L403-418L213-418L213-184Q213-106 229-74Q244-42 292-42Q340-42 398-61L398-61L410-11Q352 10 302 10Q252 10 224-3Q195-16 182-45Q168-73 164-103Q160-133 160-182L160-182Z"/><path id="r78" d="M35-475L85-475L88-445Q138-481 165-481L165-481Q231-481 256-438L256-438Q312-481 354-481L354-481Q419-481 443-441Q467-401 467-318L467-318L467 0L414 0L414-318Q414-375 402-403Q390-430 356-430Q322-430 272-398L272-398Q278-364 278-318L278-318L278-152L225-152L225-318Q225-375 213-402L213-402Q200-430 166-430Q132-430 88-398L88-398L88 0L35 0L35-475Z"/><path id="r112" d="M247-245L247-245Q202-245 202-302Q202-359 248-359Q293-359 293-300L293-300Q293-271 283-258Q272-245 247-245Z"/><path id="r81" d="M130 192L77 192L77-389L68-476L118-482L127-428Q200-481 266-481L266-481Q355-481 404-416Q453-351 453-237Q453-123 399-57Q345 9 249 9L249 9Q193 9 130-18L130-18L130 192ZM396-236Q396-324 362-377Q328-429 265-429Q201-429 130-372L130-372L130-72Q151-62 188-53Q224-43 247-43L247-43Q318-43 357-95Q396-147 396-236Z"/><path id="r79" d="M76-475L127-475L129-435Q226-481 290-481Q354-481 391-437Q427-393 427-317L427-317L427 0L374 0L374-317Q374-366 350-398L350-398Q326-429 278-429Q230-429 129-385L129-385L129 0L76 0L76-475Z"/><path id="b51" d="M248-210L248-210L149-210L149 0L45 0L45-655L251-655Q365-655 418-603Q470-550 470-438L470-438Q470-210 248-210ZM235-563L235-563L149-563L149-305L235-305Q302-305 333-337Q364-368 364-438Q364-508 333-536Q301-563 235-563Z"/><path id="r348" d="M407-653L397-604Q323-624 266-624Q208-624 181-588Q154-551 154-475L154-475L423-475L423 0L370 0L370-425L154-425L154 0L101 0L101-425L6-425L6-475L101-475Q101-573 144-623Q186-673 266-673L266-673Q330-673 388-658L388-658L407-653Z"/><path id="r76" d="M359-475L359-475L419-475Q349-362 258-253L258-253Q320-165 425 0L425 0L365 0Q285-130 220-221L220-221L150-212L150 0L97 0L97-664L150-664L150-260L215-270Q286-362 359-475Z"/><path id="b54" d="M42-480L42-480Q42-665 264-665L264-665Q342-665 442-630L442-630L419-539Q317-571 259-572Q200-572 174-552Q148-532 148-482L148-482Q148-448 177-425Q206-401 275-383L275-383Q380-355 419-311Q458-267 458-180L458-180Q458 9 232 9L232 9Q157 9 43-23L43-23L64-118Q64-117 95-109L95-109Q192-84 246-84Q299-84 326-111Q352-138 352-179Q352-220 330-242Q307-264 247-281L247-281Q139-311 91-355Q42-399 42-480Z"/><path id="r72" d="M428-475L428-115L431 23Q431 112 378 156Q324 200 245 200Q166 200 65 160L65 160L83 110Q182 148 241 148Q299 148 339 118Q378 87 378 24L378 24Q378 16 377-12Q375-39 375-52L375-52Q302-1 239-1L239-1Q149-1 101-63Q52-124 52-238Q52-351 106-416Q160-481 256-481L256-481Q309-481 375-446L375-446L377-475L428-475ZM109-239Q109-151 143-102Q177-53 242-53Q307-53 375-110L375-110L375-390Q313-429 258-429L258-429Q187-429 148-378Q109-326 109-239Z"/><path id="b58" d="M205 0L57 0L0-655L100-655L144-92L150-92L212-383L301-383L360-92L367-92L402-655L499-655L454 0L302 0L256-258L253-258L205 0Z"/><path id="r73" d="M131-388L131-388L131 0L78 0L78-664L131-664L131-439Q225-481 286-481L286-481Q429-481 429-317L429-317L429 0L376 0L376-317Q376-368 354-399Q332-429 278-429Q224-429 131-388Z"/><path id="r82" d="M377-475L428-475L428 190L375 190L375-42Q302 9 239 9L239 9Q150 9 101-57Q52-123 52-237Q52-351 106-416Q160-481 256-481L256-481Q309-481 375-446L375-446L377-475ZM109-238Q109-149 144-96Q178-43 243-43Q307-43 375-100L375-100L375-390Q313-429 258-429L258-429Q187-429 148-378Q109-326 109-238Z"/><path id="r88" d="M361-48L413-475L465-475L408 0L302 0L251-207L247-207L195 0L90 0L35-475L87-475L139-48L157-48L224-289L276-289L343-48L361-48Z"/><path id="b67" d="M157 0L57 0L57-667L160-667L160-440Q222-483 276-483L276-483Q380-483 426-423Q472-362 472-234Q472-106 416-48Q359 11 266 11L266 11Q223 11 159-20L159-20L157 0ZM263-386L263-386Q214-386 160-341L160-341L160-116Q220-86 268-86Q316-86 339-123Q361-159 361-235L361-235Q361-386 263-386Z"/><path id="b9" d="M4-197L4-197Q4-344 140-405L140-405Q104-466 99-487L99-487Q95-508 95-525L95-525Q95-588 137-627Q179-665 251-665Q323-665 364-627L364-627Q406-588 406-528Q406-468 375-432Q344-395 265-360L265-360L368-212Q388-261 406-388L406-388L491-376Q473-229 426-138L426-138L498-44L429 10Q400-26 373-65L373-65Q304 10 206 10Q108 10 56-42Q4-94 4-197ZM316-522L316-522Q316-584 252-584Q188-584 188-525L188-525Q188-495 195-475Q202-454 224-424L224-424Q276-445 296-468Q316-490 316-522ZM95-197L95-197Q95-131 121-101Q147-71 205-71L205-71Q280-71 325-132L325-132L179-339Q95-297 95-197Z"/><path id="b78" d="M23-475L121-475L124-448Q162-483 198-483L198-483Q249-483 275-445L275-445Q327-483 367-483L367-483Q427-483 453-448Q478-413 478-318L478-318L478 0L376 0L376-274Q376-366 360-380L360-380Q352-388 337-388Q322-388 299-368L299-368Q304-345 304-274L304-274L304-163L203-163L203-274Q203-365 192-380L192-380Q186-388 172-388Q157-388 128-366L128-366L128 0L23 0L23-475Z"/><path id="b80" d="M93-423Q144-483 250-483Q356-483 407-423Q458-362 458-236Q458-110 407-49Q356 13 250 13Q144 13 93-49Q42-110 42-236Q42-362 93-423ZM174-351Q153-316 153-236Q153-156 174-120Q195-84 250-84Q305-84 326-120Q347-156 347-236Q347-316 327-351Q306-386 250-386Q194-386 174-351Z"/><path id="b74" d="M214-381L103-381L103-473L317-473L317-92L428-92L428 0L95 0L95-92L214-92L214-381ZM217-561Q198-580 198-606Q198-632 216-650L216-650Q234-668 260-668Q286-668 304-651Q322-633 322-606Q322-579 304-560Q286-541 261-541Q236-541 217-561Z"/><path id="b77" d="M208-576L99-575L98-666L311-667L311-90L423-90L423 0L95 0L95-90L208-90L208-576Z"/><path id="b81" d="M160 192L57 192L57-389L51-475L151-482L157-438Q224-483 276-483L276-483Q377-483 425-424Q472-364 472-238Q472-112 414-51Q356 11 249 11L249 11Q213 11 160-10L160-10L160 192ZM272-387L272-387Q226-387 160-343L160-343L160-105Q208-84 247-84L247-84Q361-84 361-236Q361-388 272-387Z"/><path id="b11" d="M332 170Q253 55 214-55Q174-164 174-318Q174-471 214-582Q254-692 332-806L332-806L407-758Q340-659 306-561Q272-462 272-318Q272-174 306-76Q339 23 405 120L405 120L332 170Z"/><path id="b15" d="M219 0L173 0L173-145L315-145L315-30Q315 61 233 143L233 143L172 112Q215 53 219 0L219 0Z"/><path id="b69" d="M354-667L456-667L456-83L466 0L365 10L356-36Q291 11 229 11L229 11Q136 11 89-44Q42-98 42-228Q42-358 99-421Q156-483 247-483L247-483Q300-483 354-460L354-460L354-667ZM236-85L236-85Q289-85 354-139L354-139L354-362Q302-387 252-387L252-387Q153-387 153-228L153-228Q153-85 236-85Z"/><path id="b83" d="M158-383L81-383L81-475L261-475L263-427Q295-445 347-462Q398-478 442-483L442-483L442-383Q403-379 349-362Q295-345 263-327L263-327L263-90L409-90L409 0L81 0L81-92L158-92L158-383Z"/><path id="b12" d="M176-76Q209-174 209-318Q209-462 175-561Q141-659 74-758L74-758L149-806Q227-692 267-582L267-582Q307-472 307-318Q307-164 268-55Q228 55 149 170L149 170L76 120Q142 23 176-76Z"/></defs><rect x="0.75" y="0.75" width="838.5" height="460.5" rx="22" fill="#111827" stroke="#1F2937" stroke-width="1.5"/><rect x="20" y="24" width="230" height="318" rx="18" fill="none" stroke="#334155" stroke-width="1.5" stroke-dasharray="6 6"/><g fill="#94A3B8"><use xlink:href="#b41" transform="translate(38.0 50.0) scale(0.01200)"/><use xlink:href="#b53" transform="translate(44.0 50.0) scale(0.01200)"/><use xlink:href="#b50" transform="translate(50.0 50.0) scale(0.01200)"/><use xlink:href="#b49" transform="translate(56.0 50.0) scale(0.01200)"/><use xlink:href="#b55" transform="translate(62.0 50.0) scale(0.01200)"/><use xlink:href="#b50" transform="translate(74.0 50.0) scale(0.01200)"/><use xlink:href="#b41" transform="translate(80.0 50.0) scale(0.01200)"/><use xlink:href="#b41" transform="translate(86.0 50.0) scale(0.01200)"/><use xlink:href="#b44" transform="translate(92.0 50.0) scale(0.01200)"/><use xlink:href="#b38" transform="translate(98.0 50.0) scale(0.01200)"/><use xlink:href="#b40" transform="translate(104.0 50.0) scale(0.01200)"/></g><rect x="290" y="24" width="530" height="318" rx="18" fill="none" stroke="#334155" stroke-width="1.5" stroke-dasharray="6 6"/><g fill="#94A3B8"><use xlink:href="#b37" transform="translate(308.0 50.0) scale(0.01200)"/><use xlink:href="#b36" transform="translate(314.0 50.0) scale(0.01200)"/><use xlink:href="#b38" transform="translate(320.0 50.0) scale(0.01200)"/><use xlink:href="#b46" transform="translate(326.0 50.0) scale(0.01200)"/><use xlink:href="#b50" transform="translate(338.0 50.0) scale(0.01200)"/><use xlink:href="#b41" transform="translate(344.0 50.0) scale(0.01200)"/><use xlink:href="#b41" transform="translate(350.0 50.0) scale(0.01200)"/><use xlink:href="#b44" transform="translate(356.0 50.0) scale(0.01200)"/><use xlink:href="#b38" transform="translate(362.0 50.0) scale(0.01200)"/><use xlink:href="#b40" transform="translate(368.0 50.0) scale(0.01200)"/></g><path d="M135 144 V232" fill="none" stroke="#94A3B8" stroke-width="2" marker-end="url(#arrow)"/><path d="M225 273 C 270 273, 285 190, 326 190" fill="none" stroke="#94A3B8" stroke-width="2" marker-end="url(#arrow)"/><path d="M514 176 C 560 176, 570 107, 611 107" fill="none" stroke="#94A3B8" stroke-width="2" marker-end="url(#arrow)" marker-start="url(#arrow)"/><path d="M514 204 C 560 204, 570 273, 611 273" fill="none" stroke="#94A3B8" stroke-width="2" marker-end="url(#arrow)" marker-start="url(#arrow)"/><path d="M705 144 V232" fill="none" stroke="#94A3B8" stroke-width="2" marker-end="url(#arrow)"/><path d="M135 384 V314" fill="none" stroke="#94A3B8" stroke-width="2" stroke-dasharray="5 6" marker-end="url(#arrow)"/><path d="M420 384 V231" fill="none" stroke="#94A3B8" stroke-width="2" stroke-dasharray="5 6" marker-end="url(#arrow)"/><path d="M705 384 V314" fill="none" stroke="#94A3B8" stroke-width="2" stroke-dasharray="5 6" marker-end="url(#arrow)"/><rect x="45" y="70" width="180" height="74" rx="16" fill="#2563EB"/><g fill="#FFFFFF"><use xlink:href="#b36" transform="translate(90.0 102.0) scale(0.02000)"/><use xlink:href="#b44" transform="translate(100.0 102.0) scale(0.02000)"/><use xlink:href="#b66" transform="translate(120.0 102.0) scale(0.02000)"/><use xlink:href="#b72" transform="translate(130.0 102.0) scale(0.02000)"/><use xlink:href="#b70" transform="translate(140.0 102.0) scale(0.02000)"/><use xlink:href="#b79" transform="translate(150.0 102.0) scale(0.02000)"/><use xlink:href="#b85" transform="translate(160.0 102.0) scale(0.02000)"/><use xlink:href="#b84" transform="translate(170.0 102.0) scale(0.02000)"/></g><g fill="#E0E7FF"><use xlink:href="#r77" transform="translate(89.5 125.0) scale(0.01300)"/><use xlink:href="#r70" transform="translate(96.0 125.0) scale(0.01300)"/><use xlink:href="#r66" transform="translate(102.5 125.0) scale(0.01300)"/><use xlink:href="#r69" transform="translate(109.0 125.0) scale(0.01300)"/><use xlink:href="#r69" transform="translate(122.0 125.0) scale(0.01300)"/><use xlink:href="#r74" transform="translate(128.5 125.0) scale(0.01300)"/><use xlink:href="#r84" transform="translate(135.0 125.0) scale(0.01300)"/><use xlink:href="#r68" transform="translate(141.5 125.0) scale(0.01300)"/><use xlink:href="#r80" transform="translate(148.0 125.0) scale(0.01300)"/><use xlink:href="#r87" transform="translate(154.5 125.0) scale(0.01300)"/><use xlink:href="#r70" transform="translate(161.0 125.0) scale(0.01300)"/><use xlink:href="#r83" transform="translate(167.5 125.0) scale(0.01300)"/><use xlink:href="#r90" transform="translate(174.0 125.0) scale(0.01300)"/></g><rect x="45" y="236" width="180" height="74" rx="16" fill="#512BD4"/><g fill="#FFFFFF"><use xlink:href="#b38" transform="translate(120.0 268.0) scale(0.02000)"/><use xlink:href="#b53" transform="translate(130.0 268.0) scale(0.02000)"/><use xlink:href="#b48" transform="translate(140.0 268.0) scale(0.02000)"/></g><g fill="#E0E7FF"><use xlink:href="#r68" transform="translate(70.0 291.0) scale(0.01300)"/><use xlink:href="#r86" transform="translate(76.5 291.0) scale(0.01300)"/><use xlink:href="#r84" transform="translate(83.0 291.0) scale(0.01300)"/><use xlink:href="#r85" transform="translate(89.5 291.0) scale(0.01300)"/><use xlink:href="#r80" transform="translate(96.0 291.0) scale(0.01300)"/><use xlink:href="#r78" transform="translate(102.5 291.0) scale(0.01300)"/><use xlink:href="#r70" transform="translate(109.0 291.0) scale(0.01300)"/><use xlink:href="#r83" transform="translate(115.5 291.0) scale(0.01300)"/><use xlink:href="#r84" transform="translate(122.0 291.0) scale(0.01300)"/><use xlink:href="#r112" transform="translate(135.0 291.0) scale(0.01300)"/><use xlink:href="#r81" transform="translate(148.0 291.0) scale(0.01300)"/><use xlink:href="#r74" transform="translate(154.5 291.0) scale(0.01300)"/><use xlink:href="#r81" transform="translate(161.0 291.0) scale(0.01300)"/><use xlink:href="#r70" transform="translate(167.5 291.0) scale(0.01300)"/><use xlink:href="#r77" transform="translate(174.0 291.0) scale(0.01300)"/><use xlink:href="#r74" transform="translate(180.5 291.0) scale(0.01300)"/><use xlink:href="#r79" transform="translate(187.0 291.0) scale(0.01300)"/><use xlink:href="#r70" transform="translate(193.5 291.0) scale(0.01300)"/></g><rect x="330" y="153" width="180" height="74" rx="16" fill="#512BD4"/><g fill="#FFFFFF"><use xlink:href="#b40" transform="translate(405.0 185.0) scale(0.02000)"/><use xlink:href="#b53" transform="translate(415.0 185.0) scale(0.02000)"/><use xlink:href="#b51" transform="translate(425.0 185.0) scale(0.02000)"/></g><g fill="#E0E7FF"><use xlink:href="#r348" transform="translate(371.3 208.0) scale(0.01300)"/><use xlink:href="#r79" transform="translate(377.8 208.0) scale(0.01300)"/><use xlink:href="#r66" transform="translate(384.3 208.0) scale(0.01300)"/><use xlink:href="#r79" transform="translate(390.8 208.0) scale(0.01300)"/><use xlink:href="#r68" transform="translate(397.3 208.0) scale(0.01300)"/><use xlink:href="#r70" transform="translate(403.8 208.0) scale(0.01300)"/><use xlink:href="#r112" transform="translate(416.8 208.0) scale(0.01300)"/><use xlink:href="#r84" transform="translate(429.8 208.0) scale(0.01300)"/><use xlink:href="#r85" transform="translate(436.3 208.0) scale(0.01300)"/><use xlink:href="#r80" transform="translate(442.8 208.0) scale(0.01300)"/><use xlink:href="#r68" transform="translate(449.3 208.0) scale(0.01300)"/><use xlink:href="#r76" transform="translate(455.8 208.0) scale(0.01300)"/></g><rect x="615" y="70" width="180" height="74" rx="16" fill="#512BD4"/><g fill="#FFFFFF"><use xlink:href="#b48" transform="translate(690.0 102.0) scale(0.02000)"/><use xlink:href="#b40" transform="translate(700.0 102.0) scale(0.02000)"/><use xlink:href="#b54" transform="translate(710.0 102.0) scale(0.02000)"/></g><g fill="#E0E7FF"><use xlink:href="#r81" transform="translate(643.3 125.0) scale(0.01300)"/><use xlink:href="#r83" transform="translate(649.8 125.0) scale(0.01300)"/><use xlink:href="#r80" transform="translate(656.3 125.0) scale(0.01300)"/><use xlink:href="#r69" transform="translate(662.8 125.0) scale(0.01300)"/><use xlink:href="#r86" transform="translate(669.3 125.0) scale(0.01300)"/><use xlink:href="#r68" transform="translate(675.8 125.0) scale(0.01300)"/><use xlink:href="#r85" transform="translate(682.3 125.0) scale(0.01300)"/><use xlink:href="#r74" transform="translate(688.8 125.0) scale(0.01300)"/><use xlink:href="#r80" transform="translate(695.3 125.0) scale(0.01300)"/><use xlink:href="#r79" transform="translate(701.8 125.0) scale(0.01300)"/><use xlink:href="#r85" transform="translate(714.8 125.0) scale(0.01300)"/><use xlink:href="#r83" transform="translate(721.3 125.0) scale(0.01300)"/><use xlink:href="#r66" transform="translate(727.8 125.0) scale(0.01300)"/><use xlink:href="#r68" transform="translate(734.3 125.0) scale(0.01300)"/><use xlink:href="#r76" transform="translate(740.8 125.0) scale(0.01300)"/><use xlink:href="#r74" transform="translate(747.3 125.0) scale(0.01300)"/><use xlink:href="#r79" transform="translate(753.8 125.0) scale(0.01300)"/><use xlink:href="#r72" transform="translate(760.3 125.0) scale(0.01300)"/></g><rect x="615" y="236" width="180" height="74" rx="16" fill="#512BD4"/><g fill="#FFFFFF"><use xlink:href="#b58" transform="translate(690.0 268.0) scale(0.02000)"/><use xlink:href="#b48" transform="translate(700.0 268.0) scale(0.02000)"/><use xlink:href="#b54" transform="translate(710.0 268.0) scale(0.02000)"/></g><g fill="#E0E7FF"><use xlink:href="#r83" transform="translate(640.0 291.0) scale(0.01300)"/><use xlink:href="#r70" transform="translate(646.5 291.0) scale(0.01300)"/><use xlink:href="#r68" transform="translate(653.0 291.0) scale(0.01300)"/><use xlink:href="#r70" transform="translate(659.5 291.0) scale(0.01300)"/><use xlink:href="#r74" transform="translate(666.0 291.0) scale(0.01300)"/><use xlink:href="#r87" transform="translate(672.5 291.0) scale(0.01300)"/><use xlink:href="#r74" transform="translate(679.0 291.0) scale(0.01300)"/><use xlink:href="#r79" transform="translate(685.5 291.0) scale(0.01300)"/><use xlink:href="#r72" transform="translate(692.0 291.0) scale(0.01300)"/><use xlink:href="#r112" transform="translate(705.0 291.0) scale(0.01300)"/><use xlink:href="#r84" transform="translate(718.0 291.0) scale(0.01300)"/><use xlink:href="#r73" transform="translate(724.5 291.0) scale(0.01300)"/><use xlink:href="#r74" transform="translate(731.0 291.0) scale(0.01300)"/><use xlink:href="#r81" transform="translate(737.5 291.0) scale(0.01300)"/><use xlink:href="#r81" transform="translate(744.0 291.0) scale(0.01300)"/><use xlink:href="#r74" transform="translate(750.5 291.0) scale(0.01300)"/><use xlink:href="#r79" transform="translate(757.0 291.0) scale(0.01300)"/><use xlink:href="#r72" transform="translate(763.5 291.0) scale(0.01300)"/></g><rect x="78.25" y="178" width="113.50000000000001" height="22" rx="11" fill="#111827" stroke="#334155"/><g fill="#DCE3EC"><use xlink:href="#r82" transform="translate(86.3 194.0) scale(0.01300)"/><use xlink:href="#r86" transform="translate(92.8 194.0) scale(0.01300)"/><use xlink:href="#r66" transform="translate(99.3 194.0) scale(0.01300)"/><use xlink:href="#r77" transform="translate(105.8 194.0) scale(0.01300)"/><use xlink:href="#r74" transform="translate(112.3 194.0) scale(0.01300)"/><use xlink:href="#r348" transform="translate(118.8 194.0) scale(0.01300)"/><use xlink:href="#r70" transform="translate(125.3 194.0) scale(0.01300)"/><use xlink:href="#r69" transform="translate(131.8 194.0) scale(0.01300)"/><use xlink:href="#r77" transform="translate(144.8 194.0) scale(0.01300)"/><use xlink:href="#r70" transform="translate(151.3 194.0) scale(0.01300)"/><use xlink:href="#r66" transform="translate(157.8 194.0) scale(0.01300)"/><use xlink:href="#r69" transform="translate(164.3 194.0) scale(0.01300)"/><use xlink:href="#r84" transform="translate(170.8 194.0) scale(0.01300)"/></g><rect x="244.5" y="220" width="55.00000000000001" height="22" rx="11" fill="#111827" stroke="#334155"/><g fill="#DCE3EC"><use xlink:href="#r80" transform="translate(252.5 236.0) scale(0.01300)"/><use xlink:href="#r83" transform="translate(259.0 236.0) scale(0.01300)"/><use xlink:href="#r69" transform="translate(265.5 236.0) scale(0.01300)"/><use xlink:href="#r70" transform="translate(272.0 236.0) scale(0.01300)"/><use xlink:href="#r83" transform="translate(278.5 236.0) scale(0.01300)"/><use xlink:href="#r84" transform="translate(285.0 236.0) scale(0.01300)"/></g><rect x="518.25" y="126" width="87.50000000000001" height="22" rx="11" fill="#111827" stroke="#334155"/><g fill="#DCE3EC"><use xlink:href="#r88" transform="translate(526.3 142.0) scale(0.01300)"/><use xlink:href="#r80" transform="translate(532.8 142.0) scale(0.01300)"/><use xlink:href="#r83" transform="translate(539.3 142.0) scale(0.01300)"/><use xlink:href="#r76" transform="translate(545.8 142.0) scale(0.01300)"/><use xlink:href="#r80" transform="translate(558.8 142.0) scale(0.01300)"/><use xlink:href="#r83" transform="translate(565.3 142.0) scale(0.01300)"/><use xlink:href="#r69" transform="translate(571.8 142.0) scale(0.01300)"/><use xlink:href="#r70" transform="translate(578.3 142.0) scale(0.01300)"/><use xlink:href="#r83" transform="translate(584.8 142.0) scale(0.01300)"/><use xlink:href="#r84" transform="translate(591.3 142.0) scale(0.01300)"/></g><rect x="515" y="232" width="94.00000000000001" height="22" rx="11" fill="#111827" stroke="#334155"/><g fill="#DCE3EC"><use xlink:href="#r84" transform="translate(523.0 248.0) scale(0.01300)"/><use xlink:href="#r85" transform="translate(529.5 248.0) scale(0.01300)"/><use xlink:href="#r80" transform="translate(536.0 248.0) scale(0.01300)"/><use xlink:href="#r68" transform="translate(542.5 248.0) scale(0.01300)"/><use xlink:href="#r76" transform="translate(549.0 248.0) scale(0.01300)"/><use xlink:href="#r77" transform="translate(562.0 248.0) scale(0.01300)"/><use xlink:href="#r70" transform="translate(568.5 248.0) scale(0.01300)"/><use xlink:href="#r87" transform="translate(575.0 248.0) scale(0.01300)"/><use xlink:href="#r70" transform="translate(581.5 248.0) scale(0.01300)"/><use xlink:href="#r77" transform="translate(588.0 248.0) scale(0.01300)"/><use xlink:href="#r84" transform="translate(594.5 248.0) scale(0.01300)"/></g><rect x="651.5" y="178" width="107.00000000000001" height="22" rx="11" fill="#111827" stroke="#334155"/><g fill="#DCE3EC"><use xlink:href="#r348" transform="translate(659.5 194.0) scale(0.01300)"/><use xlink:href="#r79" transform="translate(666.0 194.0) scale(0.01300)"/><use xlink:href="#r74" transform="translate(672.5 194.0) scale(0.01300)"/><use xlink:href="#r84" transform="translate(679.0 194.0) scale(0.01300)"/><use xlink:href="#r73" transform="translate(685.5 194.0) scale(0.01300)"/><use xlink:href="#r70" transform="translate(692.0 194.0) scale(0.01300)"/><use xlink:href="#r69" transform="translate(698.5 194.0) scale(0.01300)"/><use xlink:href="#r72" transform="translate(711.5 194.0) scale(0.01300)"/><use xlink:href="#r80" transform="translate(718.0 194.0) scale(0.01300)"/><use xlink:href="#r80" transform="translate(724.5 194.0) scale(0.01300)"/><use xlink:href="#r69" transform="translate(731.0 194.0) scale(0.01300)"/><use xlink:href="#r84" transform="translate(737.5 194.0) scale(0.01300)"/></g><rect x="45" y="384" width="750" height="54" rx="16" fill="#0F766E"/><g transform="translate(70 399) scale(1)" fill="none" stroke="#FFFFFF" stroke-width="2" stroke-linecap="round" stroke-linejoin="round">
  <rect width="14" height="20" x="5" y="2" rx="2" ry="2" />
  <path d="M12 18h.01" />
</g><g fill="#FFFFFF"><use xlink:href="#b58" transform="translate(106.0 416.9) scale(0.01800)"/><use xlink:href="#b70" transform="translate(115.0 416.9) scale(0.01800)"/><use xlink:href="#b67" transform="translate(124.0 416.9) scale(0.01800)"/><use xlink:href="#b9" transform="translate(142.0 416.9) scale(0.01800)"/><use xlink:href="#b78" transform="translate(160.0 416.9) scale(0.01800)"/><use xlink:href="#b80" transform="translate(169.0 416.9) scale(0.01800)"/><use xlink:href="#b67" transform="translate(178.0 416.9) scale(0.01800)"/><use xlink:href="#b74" transform="translate(187.0 416.9) scale(0.01800)"/><use xlink:href="#b77" transform="translate(196.0 416.9) scale(0.01800)"/><use xlink:href="#b70" transform="translate(205.0 416.9) scale(0.01800)"/><use xlink:href="#b66" transform="translate(223.0 416.9) scale(0.01800)"/><use xlink:href="#b81" transform="translate(232.0 416.9) scale(0.01800)"/><use xlink:href="#b81" transform="translate(241.0 416.9) scale(0.01800)"/><use xlink:href="#b84" transform="translate(250.0 416.9) scale(0.01800)"/><use xlink:href="#b11" transform="translate(268.0 416.9) scale(0.01800)"/><use xlink:href="#b51" transform="translate(277.0 416.9) scale(0.01800)"/><use xlink:href="#b58" transform="translate(286.0 416.9) scale(0.01800)"/><use xlink:href="#b36" transform="translate(295.0 416.9) scale(0.01800)"/><use xlink:href="#b15" transform="translate(304.0 416.9) scale(0.01800)"/><use xlink:href="#b74" transform="translate(322.0 416.9) scale(0.01800)"/><use xlink:href="#b50" transform="translate(331.0 416.9) scale(0.01800)"/><use xlink:href="#b54" transform="translate(340.0 416.9) scale(0.01800)"/><use xlink:href="#b15" transform="translate(349.0 416.9) scale(0.01800)"/><use xlink:href="#b36" transform="translate(367.0 416.9) scale(0.01800)"/><use xlink:href="#b79" transform="translate(376.0 416.9) scale(0.01800)"/><use xlink:href="#b69" transform="translate(385.0 416.9) scale(0.01800)"/><use xlink:href="#b83" transform="translate(394.0 416.9) scale(0.01800)"/><use xlink:href="#b80" transform="translate(403.0 416.9) scale(0.01800)"/><use xlink:href="#b74" transform="translate(412.0 416.9) scale(0.01800)"/><use xlink:href="#b69" transform="translate(421.0 416.9) scale(0.01800)"/><use xlink:href="#b12" transform="translate(430.0 416.9) scale(0.01800)"/></g></svg>
